<mxfile host="app.diagrams.net" modified="2023-03-27T15:58:16.079Z" agent="Mozilla/5.0 (Windows NT 10.0; Win64; x64) AppleWebKit/537.36 (KHTML, like Gecko) Chrome/111.0.0.0 Safari/537.36 Edg/111.0.1661.54" etag="182VAKDTeCZ6bP2TBuJk" version="21.1.1" type="device">
  <diagram name="Page-1" id="2YBvvXClWsGukQMizWep">
    <mxGraphModel dx="897" dy="1881" grid="1" gridSize="10" guides="1" tooltips="1" connect="1" arrows="1" fold="1" page="1" pageScale="1" pageWidth="850" pageHeight="1100" math="0" shadow="0">
      <root>
        <mxCell id="0" />
        <mxCell id="1" parent="0" />
        <mxCell id="MN9ftSBIloiBMkdkVGjQ-21" style="edgeStyle=orthogonalEdgeStyle;rounded=0;orthogonalLoop=1;jettySize=auto;html=1;exitX=0.5;exitY=1;exitDx=0;exitDy=0;entryX=0.5;entryY=0;entryDx=0;entryDy=0;" edge="1" parent="1" source="MN9ftSBIloiBMkdkVGjQ-1" target="MN9ftSBIloiBMkdkVGjQ-12">
          <mxGeometry relative="1" as="geometry" />
        </mxCell>
        <mxCell id="MN9ftSBIloiBMkdkVGjQ-1" value=".qamt" style="shape=parallelogram;html=1;strokeWidth=2;perimeter=parallelogramPerimeter;whiteSpace=wrap;rounded=1;arcSize=12;size=0.23;" vertex="1" parent="1">
          <mxGeometry x="70" y="-1079" width="60" height="30" as="geometry" />
        </mxCell>
        <mxCell id="MN9ftSBIloiBMkdkVGjQ-29" style="edgeStyle=orthogonalEdgeStyle;rounded=0;orthogonalLoop=1;jettySize=auto;html=1;exitX=0.5;exitY=1;exitDx=0;exitDy=0;entryX=0.5;entryY=0;entryDx=0;entryDy=0;" edge="1" parent="1" source="MN9ftSBIloiBMkdkVGjQ-2" target="MN9ftSBIloiBMkdkVGjQ-12">
          <mxGeometry relative="1" as="geometry" />
        </mxCell>
        <mxCell id="MN9ftSBIloiBMkdkVGjQ-2" value=".gps" style="shape=parallelogram;html=1;strokeWidth=2;perimeter=parallelogramPerimeter;whiteSpace=wrap;rounded=1;arcSize=12;size=0.23;" vertex="1" parent="1">
          <mxGeometry x="140" y="-1079" width="60" height="30" as="geometry" />
        </mxCell>
        <mxCell id="MN9ftSBIloiBMkdkVGjQ-60" style="edgeStyle=orthogonalEdgeStyle;rounded=0;orthogonalLoop=1;jettySize=auto;html=1;exitX=0.5;exitY=1;exitDx=0;exitDy=0;entryX=0.5;entryY=0;entryDx=0;entryDy=0;" edge="1" parent="1" source="MN9ftSBIloiBMkdkVGjQ-5" target="MN9ftSBIloiBMkdkVGjQ-12">
          <mxGeometry relative="1" as="geometry" />
        </mxCell>
        <mxCell id="MN9ftSBIloiBMkdkVGjQ-5" value=".gpx" style="shape=parallelogram;html=1;strokeWidth=2;perimeter=parallelogramPerimeter;whiteSpace=wrap;rounded=1;arcSize=12;size=0.23;" vertex="1" parent="1">
          <mxGeometry x="210" y="-1079" width="60" height="30" as="geometry" />
        </mxCell>
        <mxCell id="MN9ftSBIloiBMkdkVGjQ-32" style="edgeStyle=orthogonalEdgeStyle;rounded=0;orthogonalLoop=1;jettySize=auto;html=1;exitX=0.5;exitY=1;exitDx=0;exitDy=0;entryX=0.5;entryY=0;entryDx=0;entryDy=0;" edge="1" parent="1" source="MN9ftSBIloiBMkdkVGjQ-6" target="MN9ftSBIloiBMkdkVGjQ-12">
          <mxGeometry relative="1" as="geometry" />
        </mxCell>
        <mxCell id="MN9ftSBIloiBMkdkVGjQ-6" value=".raw" style="shape=parallelogram;html=1;strokeWidth=2;perimeter=parallelogramPerimeter;whiteSpace=wrap;rounded=1;arcSize=12;size=0.23;" vertex="1" parent="1">
          <mxGeometry x="280" y="-1079" width="60" height="30" as="geometry" />
        </mxCell>
        <mxCell id="MN9ftSBIloiBMkdkVGjQ-61" style="edgeStyle=orthogonalEdgeStyle;rounded=0;orthogonalLoop=1;jettySize=auto;html=1;exitX=0.5;exitY=1;exitDx=0;exitDy=0;entryX=0.5;entryY=0;entryDx=0;entryDy=0;" edge="1" parent="1" source="MN9ftSBIloiBMkdkVGjQ-7" target="MN9ftSBIloiBMkdkVGjQ-12">
          <mxGeometry relative="1" as="geometry" />
        </mxCell>
        <mxCell id="MN9ftSBIloiBMkdkVGjQ-7" value=".m" style="shape=parallelogram;html=1;strokeWidth=2;perimeter=parallelogramPerimeter;whiteSpace=wrap;rounded=1;arcSize=12;size=0.23;" vertex="1" parent="1">
          <mxGeometry x="350" y="-1079" width="60" height="30" as="geometry" />
        </mxCell>
        <mxCell id="MN9ftSBIloiBMkdkVGjQ-62" style="edgeStyle=orthogonalEdgeStyle;rounded=0;orthogonalLoop=1;jettySize=auto;html=1;exitX=0.5;exitY=1;exitDx=0;exitDy=0;entryX=0.5;entryY=0;entryDx=0;entryDy=0;" edge="1" parent="1" source="MN9ftSBIloiBMkdkVGjQ-8" target="MN9ftSBIloiBMkdkVGjQ-12">
          <mxGeometry relative="1" as="geometry" />
        </mxCell>
        <mxCell id="MN9ftSBIloiBMkdkVGjQ-8" value=".uimu" style="shape=parallelogram;html=1;strokeWidth=2;perimeter=parallelogramPerimeter;whiteSpace=wrap;rounded=1;arcSize=12;size=0.23;" vertex="1" parent="1">
          <mxGeometry x="418" y="-1079" width="60" height="30" as="geometry" />
        </mxCell>
        <mxCell id="MN9ftSBIloiBMkdkVGjQ-36" style="edgeStyle=orthogonalEdgeStyle;rounded=0;orthogonalLoop=1;jettySize=auto;html=1;exitX=0.5;exitY=1;exitDx=0;exitDy=0;entryX=0.5;entryY=0;entryDx=0;entryDy=0;" edge="1" parent="1" source="MN9ftSBIloiBMkdkVGjQ-12" target="MN9ftSBIloiBMkdkVGjQ-35">
          <mxGeometry relative="1" as="geometry" />
        </mxCell>
        <mxCell id="MN9ftSBIloiBMkdkVGjQ-46" style="edgeStyle=orthogonalEdgeStyle;rounded=0;orthogonalLoop=1;jettySize=auto;html=1;exitX=1;exitY=0.5;exitDx=0;exitDy=0;entryX=0.5;entryY=0;entryDx=0;entryDy=0;" edge="1" parent="1" source="MN9ftSBIloiBMkdkVGjQ-12" target="MN9ftSBIloiBMkdkVGjQ-45">
          <mxGeometry relative="1" as="geometry" />
        </mxCell>
        <mxCell id="MN9ftSBIloiBMkdkVGjQ-50" style="edgeStyle=orthogonalEdgeStyle;rounded=0;orthogonalLoop=1;jettySize=auto;html=1;exitX=1;exitY=0.5;exitDx=0;exitDy=0;entryX=0.5;entryY=0;entryDx=0;entryDy=0;" edge="1" parent="1" source="MN9ftSBIloiBMkdkVGjQ-12" target="MN9ftSBIloiBMkdkVGjQ-44">
          <mxGeometry relative="1" as="geometry" />
        </mxCell>
        <mxCell id="MN9ftSBIloiBMkdkVGjQ-51" value="GPS and GPX data" style="edgeLabel;html=1;align=center;verticalAlign=middle;resizable=0;points=[];" vertex="1" connectable="0" parent="MN9ftSBIloiBMkdkVGjQ-50">
          <mxGeometry x="-0.2924" y="3" relative="1" as="geometry">
            <mxPoint x="46" y="3" as="offset" />
          </mxGeometry>
        </mxCell>
        <mxCell id="MN9ftSBIloiBMkdkVGjQ-12" value="Load Raw Data and Create .h5" style="rounded=1;whiteSpace=wrap;html=1;strokeWidth=2;" vertex="1" parent="1">
          <mxGeometry x="215" y="-970" width="190" height="60" as="geometry" />
        </mxCell>
        <mxCell id="MN9ftSBIloiBMkdkVGjQ-16" value="" style="group" vertex="1" connectable="0" parent="1">
          <mxGeometry x="490" y="-1080" width="60" height="31" as="geometry" />
        </mxCell>
        <mxCell id="MN9ftSBIloiBMkdkVGjQ-9" value=".adc" style="shape=parallelogram;html=1;strokeWidth=2;perimeter=parallelogramPerimeter;whiteSpace=wrap;rounded=1;arcSize=12;size=0.23;" vertex="1" parent="MN9ftSBIloiBMkdkVGjQ-16">
          <mxGeometry y="1" width="60" height="30" as="geometry" />
        </mxCell>
        <mxCell id="MN9ftSBIloiBMkdkVGjQ-10" value="" style="shape=image;html=1;verticalAlign=top;verticalLabelPosition=bottom;labelBackgroundColor=#ffffff;imageAspect=0;aspect=fixed;image=https://cdn4.iconfinder.com/data/icons/evil-icons-user-interface/64/question-128.png" vertex="1" parent="MN9ftSBIloiBMkdkVGjQ-16">
          <mxGeometry x="39" width="18" height="18" as="geometry" />
        </mxCell>
        <mxCell id="MN9ftSBIloiBMkdkVGjQ-39" style="edgeStyle=orthogonalEdgeStyle;rounded=0;orthogonalLoop=1;jettySize=auto;html=1;exitX=0.5;exitY=1;exitDx=0;exitDy=0;entryX=0.5;entryY=0;entryDx=0;entryDy=0;" edge="1" parent="1" source="MN9ftSBIloiBMkdkVGjQ-35" target="MN9ftSBIloiBMkdkVGjQ-38">
          <mxGeometry relative="1" as="geometry" />
        </mxCell>
        <mxCell id="MN9ftSBIloiBMkdkVGjQ-35" value="Flux Jump Correction&lt;br&gt;on Whole Flight" style="rounded=1;whiteSpace=wrap;html=1;strokeWidth=2;" vertex="1" parent="1">
          <mxGeometry x="215" y="-880" width="190" height="60" as="geometry" />
        </mxCell>
        <mxCell id="MN9ftSBIloiBMkdkVGjQ-74" value="" style="edgeStyle=orthogonalEdgeStyle;rounded=0;orthogonalLoop=1;jettySize=auto;html=1;" edge="1" parent="1" source="MN9ftSBIloiBMkdkVGjQ-38" target="MN9ftSBIloiBMkdkVGjQ-40">
          <mxGeometry relative="1" as="geometry" />
        </mxCell>
        <mxCell id="MN9ftSBIloiBMkdkVGjQ-38" value="Rotation Solution&lt;br&gt;on Whole Flight&lt;br&gt;or Segments" style="rounded=1;whiteSpace=wrap;html=1;strokeWidth=2;" vertex="1" parent="1">
          <mxGeometry x="215" y="-789" width="190" height="60" as="geometry" />
        </mxCell>
        <mxCell id="MN9ftSBIloiBMkdkVGjQ-43" style="edgeStyle=orthogonalEdgeStyle;rounded=0;orthogonalLoop=1;jettySize=auto;html=1;exitX=0.5;exitY=1;exitDx=0;exitDy=0;entryX=0.5;entryY=0;entryDx=0;entryDy=0;" edge="1" parent="1" source="MN9ftSBIloiBMkdkVGjQ-40" target="MN9ftSBIloiBMkdkVGjQ-41">
          <mxGeometry relative="1" as="geometry" />
        </mxCell>
        <mxCell id="MN9ftSBIloiBMkdkVGjQ-40" value="Time Series Extraction" style="rounded=1;whiteSpace=wrap;html=1;strokeWidth=2;" vertex="1" parent="1">
          <mxGeometry x="215" y="-700" width="190" height="60" as="geometry" />
        </mxCell>
        <mxCell id="MN9ftSBIloiBMkdkVGjQ-81" value="" style="edgeStyle=orthogonalEdgeStyle;rounded=0;orthogonalLoop=1;jettySize=auto;html=1;" edge="1" parent="1" source="MN9ftSBIloiBMkdkVGjQ-41" target="MN9ftSBIloiBMkdkVGjQ-80">
          <mxGeometry relative="1" as="geometry" />
        </mxCell>
        <mxCell id="MN9ftSBIloiBMkdkVGjQ-41" value="Tipper Processing" style="rounded=1;whiteSpace=wrap;html=1;strokeWidth=2;" vertex="1" parent="1">
          <mxGeometry x="215" y="-610" width="190" height="60" as="geometry" />
        </mxCell>
        <mxCell id="MN9ftSBIloiBMkdkVGjQ-52" style="edgeStyle=orthogonalEdgeStyle;rounded=0;orthogonalLoop=1;jettySize=auto;html=1;exitX=0.5;exitY=1;exitDx=0;exitDy=0;entryX=0.5;entryY=0;entryDx=0;entryDy=0;endArrow=none;endFill=0;" edge="1" parent="1" source="MN9ftSBIloiBMkdkVGjQ-44" target="MN9ftSBIloiBMkdkVGjQ-49">
          <mxGeometry relative="1" as="geometry" />
        </mxCell>
        <mxCell id="MN9ftSBIloiBMkdkVGjQ-44" value="Line Segmentation" style="rounded=1;whiteSpace=wrap;html=1;strokeWidth=2;" vertex="1" parent="1">
          <mxGeometry x="440" y="-880" width="90" height="60" as="geometry" />
        </mxCell>
        <mxCell id="MN9ftSBIloiBMkdkVGjQ-55" style="edgeStyle=orthogonalEdgeStyle;rounded=0;orthogonalLoop=1;jettySize=auto;html=1;exitX=0.5;exitY=1;exitDx=0;exitDy=0;entryX=1;entryY=0.5;entryDx=0;entryDy=0;" edge="1" parent="1" source="MN9ftSBIloiBMkdkVGjQ-45" target="MN9ftSBIloiBMkdkVGjQ-40">
          <mxGeometry relative="1" as="geometry" />
        </mxCell>
        <mxCell id="MN9ftSBIloiBMkdkVGjQ-45" value="Grid Preparation" style="rounded=1;whiteSpace=wrap;html=1;strokeWidth=2;" vertex="1" parent="1">
          <mxGeometry x="560" y="-880" width="80" height="60" as="geometry" />
        </mxCell>
        <mxCell id="MN9ftSBIloiBMkdkVGjQ-53" style="edgeStyle=orthogonalEdgeStyle;rounded=0;orthogonalLoop=1;jettySize=auto;html=1;exitX=0.5;exitY=1;exitDx=0;exitDy=0;entryX=1;entryY=0.25;entryDx=0;entryDy=0;" edge="1" parent="1" source="MN9ftSBIloiBMkdkVGjQ-49" target="MN9ftSBIloiBMkdkVGjQ-40">
          <mxGeometry relative="1" as="geometry" />
        </mxCell>
        <mxCell id="MN9ftSBIloiBMkdkVGjQ-54" style="edgeStyle=orthogonalEdgeStyle;rounded=0;orthogonalLoop=1;jettySize=auto;html=1;exitX=0;exitY=0.5;exitDx=0;exitDy=0;entryX=1;entryY=0.5;entryDx=0;entryDy=0;" edge="1" parent="1" source="MN9ftSBIloiBMkdkVGjQ-49" target="MN9ftSBIloiBMkdkVGjQ-38">
          <mxGeometry relative="1" as="geometry" />
        </mxCell>
        <mxCell id="MN9ftSBIloiBMkdkVGjQ-49" value="" style="shape=image;html=1;verticalAlign=top;verticalLabelPosition=bottom;labelBackgroundColor=#ffffff;imageAspect=0;aspect=fixed;image=https://cdn1.iconfinder.com/data/icons/ui-essential-17/32/UI_Essential_Outline_1_essential-app-ui-question-help-128.png" vertex="1" parent="1">
          <mxGeometry x="476" y="-768" width="18" height="18" as="geometry" />
        </mxCell>
        <mxCell id="MN9ftSBIloiBMkdkVGjQ-63" style="edgeStyle=orthogonalEdgeStyle;rounded=0;orthogonalLoop=1;jettySize=auto;html=1;exitX=0.5;exitY=1;exitDx=0;exitDy=0;entryX=0.5;entryY=0;entryDx=0;entryDy=0;" edge="1" parent="1" source="MN9ftSBIloiBMkdkVGjQ-9" target="MN9ftSBIloiBMkdkVGjQ-12">
          <mxGeometry relative="1" as="geometry" />
        </mxCell>
        <mxCell id="MN9ftSBIloiBMkdkVGjQ-64" value="" style="rounded=1;whiteSpace=wrap;html=1;absoluteArcSize=1;arcSize=14;strokeWidth=2;" vertex="1" parent="1">
          <mxGeometry x="10" y="-920" width="130" height="290" as="geometry" />
        </mxCell>
        <mxCell id="MN9ftSBIloiBMkdkVGjQ-65" value="Parameters File&lt;br&gt;.yaml" style="text;html=1;strokeColor=none;fillColor=none;align=center;verticalAlign=middle;whiteSpace=wrap;rounded=0;" vertex="1" parent="1">
          <mxGeometry x="10" y="-915" width="130" height="30" as="geometry" />
        </mxCell>
        <mxCell id="MN9ftSBIloiBMkdkVGjQ-66" value="" style="shape=image;html=1;verticalAlign=top;verticalLabelPosition=bottom;labelBackgroundColor=#ffffff;imageAspect=0;aspect=fixed;image=https://cdn1.iconfinder.com/data/icons/ui-essential-17/32/UI_Essential_Outline_1_essential-app-ui-question-help-128.png" vertex="1" parent="1">
          <mxGeometry x="49" y="-901" width="10" height="10" as="geometry" />
        </mxCell>
        <mxCell id="MN9ftSBIloiBMkdkVGjQ-79" style="edgeStyle=orthogonalEdgeStyle;rounded=0;orthogonalLoop=1;jettySize=auto;html=1;exitX=1;exitY=0.5;exitDx=0;exitDy=0;entryX=0;entryY=0.5;entryDx=0;entryDy=0;" edge="1" parent="1" source="MN9ftSBIloiBMkdkVGjQ-68" target="MN9ftSBIloiBMkdkVGjQ-35">
          <mxGeometry relative="1" as="geometry" />
        </mxCell>
        <mxCell id="MN9ftSBIloiBMkdkVGjQ-68" value="Dejumping Params" style="rounded=1;whiteSpace=wrap;html=1;absoluteArcSize=1;arcSize=14;strokeWidth=2;" vertex="1" parent="1">
          <mxGeometry x="20" y="-880" width="110" height="40" as="geometry" />
        </mxCell>
        <mxCell id="MN9ftSBIloiBMkdkVGjQ-78" style="edgeStyle=orthogonalEdgeStyle;rounded=0;orthogonalLoop=1;jettySize=auto;html=1;exitX=1;exitY=0.5;exitDx=0;exitDy=0;entryX=0;entryY=0.5;entryDx=0;entryDy=0;" edge="1" parent="1" source="MN9ftSBIloiBMkdkVGjQ-69" target="MN9ftSBIloiBMkdkVGjQ-38">
          <mxGeometry relative="1" as="geometry" />
        </mxCell>
        <mxCell id="MN9ftSBIloiBMkdkVGjQ-69" value="Rotation Params" style="rounded=1;whiteSpace=wrap;html=1;absoluteArcSize=1;arcSize=14;strokeWidth=2;" vertex="1" parent="1">
          <mxGeometry x="20" y="-779" width="110" height="40" as="geometry" />
        </mxCell>
        <mxCell id="MN9ftSBIloiBMkdkVGjQ-77" style="edgeStyle=orthogonalEdgeStyle;rounded=0;orthogonalLoop=1;jettySize=auto;html=1;exitX=1;exitY=0.5;exitDx=0;exitDy=0;entryX=0;entryY=0.5;entryDx=0;entryDy=0;" edge="1" parent="1" source="MN9ftSBIloiBMkdkVGjQ-70" target="MN9ftSBIloiBMkdkVGjQ-40">
          <mxGeometry relative="1" as="geometry" />
        </mxCell>
        <mxCell id="MN9ftSBIloiBMkdkVGjQ-70" value="Extraction Params" style="rounded=1;whiteSpace=wrap;html=1;absoluteArcSize=1;arcSize=14;strokeWidth=2;" vertex="1" parent="1">
          <mxGeometry x="20" y="-729" width="110" height="40" as="geometry" />
        </mxCell>
        <mxCell id="MN9ftSBIloiBMkdkVGjQ-76" style="edgeStyle=orthogonalEdgeStyle;rounded=0;orthogonalLoop=1;jettySize=auto;html=1;exitX=1;exitY=0.5;exitDx=0;exitDy=0;entryX=0;entryY=0.5;entryDx=0;entryDy=0;jumpStyle=arc;" edge="1" parent="1" source="MN9ftSBIloiBMkdkVGjQ-71" target="MN9ftSBIloiBMkdkVGjQ-44">
          <mxGeometry relative="1" as="geometry">
            <Array as="points">
              <mxPoint x="180" y="-810" />
              <mxPoint x="420" y="-810" />
              <mxPoint x="420" y="-850" />
            </Array>
          </mxGeometry>
        </mxCell>
        <mxCell id="MN9ftSBIloiBMkdkVGjQ-71" value="Segment Params" style="rounded=1;whiteSpace=wrap;html=1;absoluteArcSize=1;arcSize=14;strokeWidth=2;" vertex="1" parent="1">
          <mxGeometry x="20" y="-829" width="110" height="40" as="geometry" />
        </mxCell>
        <mxCell id="MN9ftSBIloiBMkdkVGjQ-75" style="edgeStyle=orthogonalEdgeStyle;rounded=0;orthogonalLoop=1;jettySize=auto;html=1;exitX=1;exitY=0.5;exitDx=0;exitDy=0;entryX=0;entryY=0.5;entryDx=0;entryDy=0;" edge="1" parent="1" source="MN9ftSBIloiBMkdkVGjQ-72" target="MN9ftSBIloiBMkdkVGjQ-41">
          <mxGeometry relative="1" as="geometry" />
        </mxCell>
        <mxCell id="MN9ftSBIloiBMkdkVGjQ-72" value="Tipper Params" style="rounded=1;whiteSpace=wrap;html=1;absoluteArcSize=1;arcSize=14;strokeWidth=2;" vertex="1" parent="1">
          <mxGeometry x="20" y="-680" width="110" height="40" as="geometry" />
        </mxCell>
        <mxCell id="MN9ftSBIloiBMkdkVGjQ-80" value="Transfer Function&lt;br&gt;Per Station" style="rounded=1;whiteSpace=wrap;html=1;strokeWidth=2;" vertex="1" parent="1">
          <mxGeometry x="440" y="-610" width="190" height="60" as="geometry" />
        </mxCell>
        <mxCell id="MN9ftSBIloiBMkdkVGjQ-84" value="" style="shape=image;html=1;verticalAlign=top;verticalLabelPosition=bottom;labelBackgroundColor=#ffffff;imageAspect=0;aspect=fixed;image=https://cdn4.iconfinder.com/data/icons/evil-icons-user-interface/64/question-128.png" vertex="1" parent="1">
          <mxGeometry x="250" y="-761" width="18" height="18" as="geometry" />
        </mxCell>
      </root>
    </mxGraphModel>
  </diagram>
</mxfile>
